<svg width="1607" height="396" viewBox="0 0 1607 396" fill="none" xmlns="http://www.w3.org/2000/svg">
<g clip-path="url(#clip0)">
<g clip-path="url(#clip1)">
<path d="M513.308 170.983H457.412C456.481 170.983 455.549 171.915 455.549 172.847V204.527C455.549 205.459 456.481 206.39 457.412 206.39H511.911C512.842 206.39 513.774 207.322 513.774 208.254V232.48C513.774 233.412 512.842 234.343 511.911 234.343H457.412C456.481 234.343 455.549 235.275 455.549 236.207V290.249C455.549 291.181 454.618 292.113 453.686 292.113H428.067C427.136 292.113 426.204 291.181 426.204 290.249V144.428C426.204 143.496 427.136 142.564 428.067 142.564H513.774C514.706 142.564 515.637 143.496 515.637 144.428V168.654C515.171 170.052 514.24 170.983 513.308 170.983Z" fill="#1A1A32"/>
<path d="M606.002 185.426H629.758C630.689 185.426 631.621 186.358 631.621 187.289V290.249C631.621 291.181 630.689 292.113 629.758 292.113H606.002C605.071 292.113 604.139 291.181 604.139 290.249V280C597.618 289.783 586.905 294.908 572.465 294.908C560.82 294.908 551.038 291.181 543.585 283.261C536.133 275.341 531.94 264.626 531.94 250.649V187.289C531.94 186.358 532.872 185.426 533.804 185.426H557.559C558.491 185.426 559.422 186.358 559.422 187.289V247.388C559.422 254.376 561.286 259.967 565.012 263.694C568.738 267.421 573.862 269.285 580.383 269.285C587.37 269.285 593.426 266.955 597.618 262.762C601.81 258.569 604.139 251.581 604.139 242.729V186.823C603.673 186.358 604.605 185.426 606.002 185.426Z" fill="#1A1A32"/>
<path d="M714.066 182.633C725.711 182.633 735.493 186.36 742.946 194.28C750.399 202.2 754.591 212.915 754.591 226.892V290.718C754.591 291.649 753.659 292.581 752.728 292.581H728.972C728.04 292.581 727.109 291.649 727.109 290.718V230.153C727.109 223.165 725.245 217.574 721.519 213.847C717.793 210.12 712.669 208.256 706.148 208.256C699.161 208.256 693.106 210.586 688.913 214.779C684.721 218.972 682.392 225.96 682.392 234.812V290.718C682.392 291.649 681.461 292.581 680.529 292.581H656.773C655.842 292.581 654.91 291.649 654.91 290.718V187.292C654.91 186.36 655.842 185.428 656.773 185.428H680.529C681.461 185.428 682.392 186.36 682.392 187.292V197.541C688.913 187.292 699.627 182.633 714.066 182.633Z" fill="#1A1A32"/>
<path d="M835.174 182.633C846.819 182.633 856.6 186.36 864.053 194.28C871.506 202.2 875.698 212.915 875.698 226.892V290.718C875.698 291.649 874.767 292.581 873.835 292.581H850.079C849.148 292.581 848.216 291.649 848.216 290.718V230.153C848.216 223.165 846.353 217.574 842.627 213.847C838.9 210.12 833.776 208.256 827.255 208.256C820.268 208.256 814.213 210.586 810.021 214.779C805.829 218.972 803.5 225.96 803.5 234.812V290.718C803.5 291.649 802.568 292.581 801.636 292.581H777.881C776.949 292.581 776.018 291.649 776.018 290.718V187.292C776.018 186.36 776.949 185.428 777.881 185.428H801.636C802.568 185.428 803.5 186.36 803.5 187.292V197.541C810.021 187.292 820.734 182.633 835.174 182.633Z" fill="#1A1A32"/>
<path d="M919.95 250.186C923.676 263.696 933.924 270.219 950.227 270.219C960.008 270.219 967.927 266.958 973.051 260.901C973.516 259.969 974.448 259.969 975.38 260.435L994.477 271.616C995.409 272.082 995.875 273.48 994.943 274.412C984.23 288.388 969.324 295.376 949.761 295.376C932.061 295.376 918.087 290.252 907.373 279.536C896.66 268.821 891.536 255.31 891.536 239.005C891.536 222.699 896.66 209.654 907.373 198.939C918.087 188.223 931.595 182.633 947.898 182.633C963.735 182.633 976.311 188.223 986.559 198.939C996.806 209.654 1001.93 223.165 1001.93 239.005C1001.93 242.266 1001.46 245.527 1001 248.788C1001 249.72 1000.07 250.186 999.135 250.186H919.95ZM919.95 228.755H974.448C973.051 221.301 969.79 216.176 964.666 212.449C959.543 208.722 953.953 207.325 947.898 207.325C940.445 207.325 934.39 209.188 929.732 212.915C924.608 216.642 921.347 221.767 919.95 228.755Z" fill="#1A1A32"/>
<path d="M1018.7 290.249V138.371C1018.7 137.44 1019.63 136.508 1020.56 136.508H1044.32C1045.25 136.508 1046.18 137.44 1046.18 138.371V290.715C1046.18 291.647 1045.25 292.578 1044.32 292.578H1020.56C1019.63 292.113 1018.7 291.181 1018.7 290.249Z" fill="#1A1A32"/>
<path d="M1121.17 294.91C1104.87 294.91 1091.83 289.319 1081.12 278.604C1070.4 267.888 1065.28 254.378 1065.28 238.538C1065.28 222.698 1070.4 209.187 1081.12 198.472C1091.83 187.757 1105.34 182.166 1121.17 182.166C1131.89 182.166 1141.2 184.495 1149.59 189.62C1157.51 194.279 1163.56 200.801 1167.75 208.255C1168.22 209.187 1167.75 210.119 1166.82 210.585L1154.71 217.573C1153.78 218.039 1152.85 217.573 1151.92 217.107C1149.12 211.982 1145.4 208.255 1140.27 204.994C1134.68 201.733 1128.16 199.87 1121.17 199.87C1110.46 199.87 1101.61 203.597 1094.16 210.585C1087.17 218.039 1083.44 226.891 1083.44 237.606C1083.44 248.321 1087.17 257.173 1094.16 264.627C1101.14 272.081 1110.46 275.342 1121.17 275.342C1128.16 275.342 1134.68 273.479 1140.27 270.218C1145.4 267.422 1149.59 263.23 1152.38 258.105C1152.85 257.173 1154.25 256.707 1155.18 257.173L1167.75 264.627C1168.69 265.093 1169.15 266.491 1168.69 267.422C1164.03 274.877 1157.97 281.399 1150.05 286.058C1141.2 292.58 1131.42 294.91 1121.17 294.91Z" fill="#1A1A32"/>
<path d="M1238.55 182.63C1251.13 182.63 1260.91 186.357 1268.83 194.277C1276.28 202.197 1280.01 212.913 1280.01 226.423V290.249C1280.01 291.181 1279.08 292.113 1278.15 292.113H1263.24C1262.31 292.113 1261.38 291.181 1261.38 290.249V227.821C1261.38 218.969 1259.05 212.447 1254.39 207.788C1249.73 203.129 1243.21 200.8 1234.83 200.8C1225.51 200.8 1218.06 203.595 1212.47 209.652C1206.88 215.242 1204.09 224.094 1204.09 236.207V290.715C1204.09 291.647 1203.15 292.579 1202.22 292.579H1187.32C1186.38 292.579 1185.45 291.647 1185.45 290.715V144.428C1185.45 143.496 1186.38 142.564 1187.32 142.564H1202.22C1203.15 142.564 1204.09 143.496 1204.09 144.428V200.8C1211.54 188.687 1223.18 182.63 1238.55 182.63Z" fill="#1A1A32"/>
<path d="M1394.13 185.427H1409.04C1409.97 185.427 1410.9 186.359 1410.9 187.291V290.251C1410.9 291.182 1409.97 292.114 1409.04 292.114H1394.13C1393.2 292.114 1392.27 291.182 1392.27 290.251V273.945C1382.95 287.921 1369.44 294.91 1351.74 294.91C1336.84 294.91 1324.26 289.319 1313.55 278.604C1302.83 267.888 1297.71 254.378 1297.71 238.538C1297.71 222.698 1302.83 209.653 1313.55 198.472C1324.26 187.757 1336.84 182.166 1351.74 182.166C1369.44 182.166 1382.95 189.154 1392.27 203.131V186.825C1392.27 186.359 1393.2 185.427 1394.13 185.427ZM1354.54 277.206C1365.25 277.206 1374.57 273.479 1381.55 266.025C1389.01 258.571 1392.27 249.719 1392.27 239.004C1392.27 228.288 1388.54 218.971 1381.55 211.982C1374.1 204.528 1365.25 200.801 1354.54 200.801C1343.82 200.801 1334.97 204.528 1327.52 211.982C1320.07 219.437 1316.81 228.288 1316.81 239.004C1316.81 249.719 1320.53 259.037 1327.52 266.025C1334.51 273.479 1343.82 277.206 1354.54 277.206Z" fill="#1A1A32"/>
<path d="M1493.35 203.127H1466.79V260.897C1466.79 266.022 1467.73 269.749 1470.06 272.078C1471.92 274.407 1475.18 275.339 1479.37 275.339C1483.1 275.339 1487.76 275.339 1493.35 274.873C1494.28 274.873 1495.21 275.805 1495.21 276.737V289.782C1495.21 290.713 1494.28 291.645 1493.35 291.645C1477.97 293.509 1466.79 292.111 1459.34 287.452C1451.89 282.793 1448.16 273.476 1448.16 260.431V203.127H1429.07C1428.13 203.127 1427.2 202.196 1427.2 201.264V187.287C1427.2 186.356 1428.13 185.424 1429.07 185.424H1448.16V162.596C1448.16 161.664 1448.63 161.198 1449.56 160.732L1464.47 156.539C1465.86 156.073 1466.79 157.005 1466.79 158.403V185.89H1493.35C1494.28 185.89 1495.21 186.822 1495.21 187.753V201.73C1495.21 202.662 1494.28 203.127 1493.35 203.127Z" fill="#1A1A32"/>
<path d="M334.908 142.094H308.823L321.4 160.263C322.331 161.661 323.729 161.195 324.66 160.263L334.908 142.094Z" fill="#68BB1B"/>
<path d="M340.964 97.8359H118.778C109.928 97.8359 104.339 107.619 108.997 115.539L122.039 137.436C123.902 140.231 127.163 142.095 130.423 142.095H309.289H335.374L351.211 115.074C355.403 107.619 349.814 97.8359 340.964 97.8359Z" fill="#75D31F"/>
<path d="M165.823 213.375L176.537 231.544C177.002 232.476 178.866 232.942 179.797 231.544L190.51 213.375H165.823Z" fill="#68BB1B"/>
<path d="M309.289 169.584H149.987C145.794 169.584 143 174.243 145.329 177.97L166.29 213.377H190.511H285.999C290.657 213.377 294.85 211.048 297.178 206.855L313.947 177.504C316.276 174.243 313.947 169.584 309.289 169.584Z" fill="#75D31F"/>
<path d="M233.831 281.396L240.352 294.441C241.75 297.236 245.01 297.236 246.408 294.907L254.326 281.396H233.831Z" fill="#68BB1B"/>
<path d="M268.764 240.395H190.511C186.318 240.395 183.989 244.587 186.318 248.315L202.155 275.336C204.484 279.063 208.211 281.392 212.403 281.392H253.859L272.957 248.315C275.286 244.587 272.957 240.395 268.764 240.395Z" fill="#75D31F"/>
</g>
</g>
<defs>
<clipPath id="clip0">
<rect width="1388.08" height="200.329" fill="white" transform="translate(107.134 97.8359)"/>
</clipPath>
<clipPath id="clip1">
<rect width="1388.08" height="198.466" fill="white" transform="translate(107.134 97.8359)"/>
</clipPath>
</defs>
</svg>
