<?xml version="1.0" standalone="no"?>
<!DOCTYPE svg PUBLIC "-//W3C//DTD SVG 20010904//EN"
 "http://www.w3.org/TR/2001/REC-SVG-20010904/DTD/svg10.dtd">
<svg version="1.0" xmlns="http://www.w3.org/2000/svg"
 width="625.000000pt" height="154.000000pt" viewBox="0 0 625.000000 154.000000"
 preserveAspectRatio="xMidYMid meet">

<g transform="translate(0.000000,154.000000) scale(0.100000,-0.100000)"
fill="#000000" stroke="none">
<path d="M3965 997 c-3 -7 -4 -143 -3 -302 l3 -290 50 0 50 0 3 303 2 302 -50
0 c-32 0 -52 -5 -55 -13z"/>
<path d="M1660 690 l0 -290 55 0 55 0 0 115 0 115 116 0 115 0 -3 53 -3 52
-113 3 -113 3 3 67 3 67 113 3 112 3 0 49 0 50 -170 0 -170 0 0 -290z"/>
<path d="M4610 690 l0 -290 35 0 35 0 0 125 c0 149 14 195 65 219 39 19 75 20
108 5 45 -20 52 -44 55 -202 l4 -148 31 3 32 3 0 162 c0 148 -2 164 -21 189
-53 71 -137 93 -212 55 -23 -12 -42 -26 -42 -31 0 -6 -4 -10 -10 -10 -6 0 -10
42 -10 105 l0 105 -35 0 -35 0 0 -290z"/>
<path d="M5653 920 c-19 -8 -23 -17 -23 -55 l0 -45 -40 0 c-39 0 -40 -1 -40
-35 0 -34 1 -35 40 -35 l40 0 0 -127 c0 -155 13 -191 75 -211 22 -7 53 -12 70
-10 26 3 30 7 33 36 3 31 2 32 -35 32 -66 0 -68 4 -71 150 l-4 130 56 0 56 0
0 35 0 35 -55 0 -55 0 0 55 c0 58 -4 62 -47 45z"/>
<path d="M2703 814 c-18 -9 -33 -20 -33 -25 0 -5 -4 -9 -10 -9 -5 0 -10 9 -10
20 0 17 -7 20 -50 20 l-50 0 0 -210 0 -210 50 0 50 0 0 120 c0 129 12 180 48
199 31 17 77 13 103 -8 23 -18 24 -26 27 -165 l3 -146 50 0 49 0 0 156 c0 174
-9 207 -63 246 -40 29 -121 34 -164 12z"/>
<path d="M3167 806 c-46 -31 -47 -31 -47 -6 0 17 -7 20 -50 20 l-50 0 0 -210
0 -210 50 0 50 0 0 113 c0 127 11 180 43 202 33 23 84 19 112 -10 24 -23 25
-29 25 -165 l0 -141 53 3 52 3 0 155 c0 137 -3 159 -20 189 -30 51 -67 74
-127 79 -45 3 -59 0 -91 -22z"/>
<path d="M3615 820 c-45 -14 -105 -69 -126 -114 -23 -50 -24 -134 -3 -184 55
-134 245 -176 352 -78 l36 33 -39 25 -39 25 -34 -20 c-48 -28 -127 -20 -159
17 -13 15 -23 31 -23 37 0 5 64 9 154 9 145 0 155 1 161 20 18 55 -33 165 -95
206 -43 29 -133 40 -185 24z m146 -119 c16 -16 29 -34 29 -40 0 -7 -37 -11
-105 -11 -68 0 -105 4 -105 11 0 6 13 24 29 40 24 24 38 29 76 29 38 0 52 -5
76 -29z"/>
<path d="M4261 804 c-134 -67 -159 -249 -48 -351 49 -45 124 -69 179 -58 47
10 113 50 137 83 l20 28 -30 18 c-30 18 -31 18 -46 -4 -20 -28 -72 -50 -120
-50 -55 0 -101 32 -125 88 -19 41 -20 52 -9 92 14 50 33 75 73 96 57 29 154
10 178 -36 10 -19 13 -19 40 -5 17 9 30 20 30 24 0 16 -64 73 -97 87 -52 22
-122 17 -182 -12z"/>
<path d="M5175 811 c-105 -49 -155 -180 -110 -289 54 -128 219 -169 320 -81
l35 31 0 -37 c0 -35 1 -36 33 -33 l32 3 0 205 0 205 -32 3 c-31 3 -33 1 -33
-27 0 -36 -10 -39 -36 -10 -44 50 -138 63 -209 30z m153 -65 c96 -50 116 -172
38 -243 -45 -41 -93 -51 -151 -28 -62 23 -89 64 -90 135 0 41 6 63 22 86 41
58 123 80 181 50z"/>
<path d="M2070 670 c0 -105 4 -161 14 -183 18 -43 66 -83 110 -91 44 -8 110 8
136 34 18 18 19 18 22 -3 3 -19 9 -22 53 -22 l50 0 0 205 0 205 -52 3 -51 3
-4 -140 c-3 -126 -5 -143 -24 -161 -31 -32 -83 -36 -116 -10 -27 21 -27 22
-30 163 l-3 142 -52 3 -53 3 0 -151z"/>
</g>
</svg>
